<?xml version="1.0" encoding="UTF-8" standalone="no"?>
<svg
   xmlns:dc="http://purl.org/dc/elements/1.1/"
   xmlns:cc="http://creativecommons.org/ns#"
   xmlns:rdf="http://www.w3.org/1999/02/22-rdf-syntax-ns#"
   xmlns:svg="http://www.w3.org/2000/svg"
   xmlns="http://www.w3.org/2000/svg"
   viewBox="0 0 2666.6667 2666.6667"
   height="2666.6667"
   width="2666.6667"
   xml:space="preserve"
   id="svg2"
   version="1.1"><metadata
     id="metadata8"><rdf:RDF><cc:Work
         rdf:about=""><dc:format>image/svg+xml</dc:format><dc:type
           rdf:resource="http://purl.org/dc/dcmitype/StillImage" /></cc:Work></rdf:RDF></metadata><defs
     id="defs6"><clipPath
       id="clipPath18"
       clipPathUnits="userSpaceOnUse"><path
         id="path16"
         d="M 0,2000 H 2000 V 0 H 0 Z" /></clipPath><clipPath
       id="clipPath42"
       clipPathUnits="userSpaceOnUse"><path
         id="path40"
         d="m 970.614,1022.134 c 27.67,-136.576 75.162,-282.703 156.685,-379.858 v 0 c 0,0 215.823,365.722 703.719,703.765 v 0 c 0,0 -44.091,5.602 -133.346,14.777 v 0 c -65.149,6.697 -176.551,32.125 -294.179,101.065 v 0 c -116.84,68.478 -149.318,109.94 -293.203,141.768 v 0 C 1030.809,1381.179 990.749,1176.338 970.614,1022.134 m 123.16,114.41 c -32.541,193.38 -19.926,224.561 -19.926,224.561 v 0 c 234.293,-3.005 252.264,-122.271 477.14,-131.966 v 0 c 0,0 -158.788,-94.073 -371.206,-345.613 v 0 c 0,0 -54.206,64.012 -86.008,253.018" /></clipPath><linearGradient
       id="linearGradient52"
       spreadMethod="pad"
       gradientTransform="matrix(666.40009,-477.09564,-477.09564,-666.40009,878.82812,1423.9541)"
       gradientUnits="userSpaceOnUse"
       y2="0"
       x2="1"
       y1="0"
       x1="0"><stop
         id="stop48"
         offset="0"
         style="stop-opacity:1;stop-color:#ed150b" /><stop
         id="stop50"
         offset="1"
         style="stop-opacity:1;stop-color:#98150b" /></linearGradient><clipPath
       id="clipPath62"
       clipPathUnits="userSpaceOnUse"><path
         id="path60"
         d="M 0,2000 H 2000 V 0 H 0 Z" /></clipPath><clipPath
       id="clipPath74"
       clipPathUnits="userSpaceOnUse"><path
         id="path72"
         d="m 981.655,1568.478 c -53.843,-39.466 -169.903,-92.502 -305.671,-104.98 v 0 c -148.029,-13.603 -231.49,-7.059 -400.195,-87.286 v 0 c 0,0 -34.471,-115.135 -10.904,-298.3 v 0 l 63.872,42.687 c 0,0 296.434,-410.55 587.996,-485.273 v 0 c 0,0 -32.602,461.558 174.719,1016.459 v 0 c 0,0 -37.449,-30.265 -109.817,-83.307 M 601.603,1017.562 c -133.74,143.416 -147,170.928 -147,170.928 v 0 c 192.195,134.026 276.274,47.549 464.712,170.653 v 0 c 0,0 -73.257,-167.026 -99.404,-495.217 v 0 c 0,0 -87.452,13.313 -218.308,153.636" /></clipPath><linearGradient
       id="linearGradient84"
       spreadMethod="pad"
       gradientTransform="matrix(834.82861,0,0,-834.82861,256.64404,1143.5557)"
       gradientUnits="userSpaceOnUse"
       y2="0"
       x2="1"
       y1="0"
       x1="0"><stop
         id="stop80"
         offset="0"
         style="stop-opacity:1;stop-color:#001dc3" /><stop
         id="stop82"
         offset="1"
         style="stop-opacity:1;stop-color:#001d96" /></linearGradient><clipPath
       id="clipPath94"
       clipPathUnits="userSpaceOnUse"><path
         id="path92"
         d="M 0,2000 H 2000 V 0 H 0 Z" /></clipPath><clipPath
       id="clipPath126"
       clipPathUnits="userSpaceOnUse"><path
         id="path124"
         d="M 0,2000 H 2000 V 0 H 0 Z" /></clipPath></defs><g
     transform="matrix(1.3333333,0,0,-1.3333333,0,2666.6667)"
     id="g10"><g
       id="g12"><g
         clip-path="url(#clipPath18)"
         id="g14"><g
           transform="translate(1091.5293,1340.6318)"
           id="g20"><path
             id="path22"
             style="fill:#ffffff;fill-opacity:1;fill-rule:nonzero;stroke:none"
             d="m 0,0 c -0.767,-22.938 1.358,-78.295 21.967,-200.769 15.786,-93.818 37.167,-155.07 52.323,-189.934 6.025,-13.861 11.569,-24.757 16.175,-32.998 103.279,119.787 192.449,201.147 250.278,249.122 24.157,20.041 44.83,35.966 61.454,48.177 -79.978,11.285 -131.695,37.558 -182.005,63.117 C 160.498,-32.958 103.935,-4.224 0,0 m 20.449,-711.211 c -45.717,54.482 -84.655,128.095 -115.733,218.79 -24.595,71.775 -44.41,154.498 -58.896,245.87 -19.024,120.002 -23.777,224.155 -24.955,265.772 l -90.075,2.94 15.296,28.417 c 46.572,86.518 102.823,146.638 141.81,181.838 42.625,38.481 74.254,56.373 75.58,57.115 l 6.255,3.506 7.06,-1.269 c 145.645,-26.183 195.397,-58.28 270.708,-106.865 21.347,-13.771 45.541,-29.38 74.577,-46.398 C 450.963,62.968 565.099,44.511 608.187,40.082 696.658,30.987 741.566,25.306 742.01,25.25 L 793.752,18.674 750.879,-11.03 C 501.048,-184.128 324.628,-364.516 220.622,-485.362 107.861,-616.381 53.527,-707.619 52.991,-708.526 L 38.615,-732.85 Z" /></g><g
           transform="translate(489.0054,1182.1333)"
           id="g24"><path
             id="path26"
             style="fill:#ffffff;fill-opacity:1;fill-rule:nonzero;stroke:none"
             d="m 0,0 c 16.413,-21.108 52.648,-64.478 130.458,-147.917 81.8,-87.719 145.522,-123.495 178.736,-137.559 14.233,155.809 38.862,272.288 57.588,344.111 6.539,25.08 12.785,46.479 18.348,64.201 C 317.292,89.109 262.128,80.672 208.409,72.459 144.173,62.637 83.243,53.324 0,0 m 421.686,-570.463 c -69.426,17.793 -144.448,55.176 -222.982,111.112 -62.007,44.165 -126.493,100.03 -191.667,166.045 -83.85,84.93 -146.325,163.636 -172.979,198.594 l -77.37,-51.707 -5.029,39.082 c -23.954,186.172 10.261,303.515 11.73,308.419 l 3.111,10.391 9.796,4.658 c 145.859,69.364 232.513,75.898 342.221,84.171 21.028,1.586 42.773,3.225 66.226,5.381 141.294,12.984 250.951,69.192 293.47,100.358 70.95,52.002 108.536,82.305 108.908,82.605 l 69.484,56.136 -31.262,-83.677 C 519.377,177.482 477.917,-80.901 461.795,-247.714 c -17.488,-180.957 -9.766,-296.238 -9.686,-297.38 l 2.364,-33.764 z" /></g></g></g><g
       transform="translate(1091.4727,1430.936)"
       id="g28"><path
         id="path30"
         style="fill:#ffffff;fill-opacity:1;fill-rule:nonzero;stroke:none"
         d="M 0,0 533.328,-159.159 416.348,-289.708 74.924,-658.009 -73.552,-177.596 -27.928,-42.75 Z" /></g><g
       transform="translate(330.3281,1279.7847)"
       id="g32"><path
         id="path34"
         style="fill:#ffffff;fill-opacity:1;fill-rule:nonzero;stroke:none"
         d="M 0,0 624.15,157.012 605.103,-17.244 542.102,-515.488 156.77,-261.344 -7.326,-46.295 Z" /></g><g
       id="g36"><g
         clip-path="url(#clipPath42)"
         id="g38"><g
           id="g44"><g
             id="g46"><path
               id="path54"
               style="fill:url(#linearGradient52);stroke:none"
               d="m 970.614,1022.134 c 27.67,-136.576 75.162,-282.703 156.685,-379.858 v 0 c 0,0 215.823,365.722 703.719,703.765 v 0 c 0,0 -44.091,5.602 -133.346,14.777 v 0 c -65.149,6.697 -176.551,32.125 -294.179,101.065 v 0 c -116.84,68.478 -149.318,109.94 -293.203,141.768 v 0 C 1030.809,1381.179 990.749,1176.338 970.614,1022.134 m 123.16,114.41 c -32.541,193.38 -19.926,224.561 -19.926,224.561 v 0 c 234.293,-3.005 252.264,-122.271 477.14,-131.966 v 0 c 0,0 -158.788,-94.073 -371.206,-345.613 v 0 c 0,0 -54.206,64.012 -86.008,253.018" /></g></g></g></g><g
       id="g56"><g
         clip-path="url(#clipPath62)"
         id="g58"><g
           transform="translate(963.6816,1043.8896)"
           id="g64"><path
             id="path66"
             style="fill:#a51c24;fill-opacity:1;fill-rule:nonzero;stroke:none"
             d="m 0,0 23.701,-95.374 c 26.546,333.748 138.194,651.62 138.194,651.62 -8.499,2.573 -16.743,4.812 -24.501,6.756 C 61.119,349.492 21.025,152.167 0,0" /></g></g></g><g
       id="g68"><g
         clip-path="url(#clipPath74)"
         id="g70"><g
           id="g76"><g
             id="g78"><path
               id="path86"
               style="fill:url(#linearGradient84);stroke:none"
               d="m 981.655,1568.478 c -53.843,-39.466 -169.903,-92.502 -305.671,-104.98 v 0 c -148.029,-13.603 -231.49,-7.059 -400.195,-87.286 v 0 c 0,0 -34.471,-115.135 -10.904,-298.3 v 0 l 63.872,42.687 c 0,0 296.434,-410.55 587.996,-485.273 v 0 c 0,0 -32.602,461.558 174.719,1016.459 v 0 c 0,0 -37.449,-30.265 -109.817,-83.307 M 601.603,1017.562 c -133.74,143.416 -147,170.928 -147,170.928 v 0 c 192.195,134.026 276.274,47.549 464.712,170.653 v 0 c 0,0 -73.257,-167.026 -99.404,-495.217 v 0 c 0,0 -87.452,13.313 -218.308,153.636" /></g></g></g></g><g
       id="g88"><g
         clip-path="url(#clipPath94)"
         id="g90"><g
           transform="translate(1139.6523,1271.644)"
           id="g96"><path
             id="path98"
             style="fill:#000000;fill-opacity:1;fill-rule:evenodd;stroke:none"
             d="m 0,0 c 0,0 12.444,-18.336 43.071,-25.902 31.18,-7.704 62.373,10.936 62.373,10.936 0,0 -70.012,-102.915 -105.444,14.966" /></g><g
           transform="translate(1300.2178,1230.7656)"
           id="g100"><path
             id="path102"
             style="fill:#000000;fill-opacity:1;fill-rule:evenodd;stroke:none"
             d="M 0,0 C 0,0 13.554,-30.284 29.598,-44.654 45.645,-59.022 78.542,-71.947 78.542,-71.947 78.542,-71.947 -32.291,-100.553 0,0" /></g><g
           transform="translate(1140.7402,1050.0576)"
           id="g104"><path
             id="path106"
             style="fill:#000000;fill-opacity:1;fill-rule:evenodd;stroke:none"
             d="M 0,0 C 0,0 146.64,116.585 107.306,-40.863 107.306,-40.863 74.139,12.53 0,0" /></g><g
           transform="translate(670.6885,1154.3267)"
           id="g108"><path
             id="path110"
             style="fill:#000000;fill-opacity:1;fill-rule:evenodd;stroke:none"
             d="m 0,0 c 0,0 -20.271,11.409 -52.596,4.19 -32.908,-7.35 -50.359,-29.588 -50.359,-29.588 0,0 14.504,119.604 102.955,25.398" /></g><g
           transform="translate(809.2598,1211.8672)"
           id="g112"><path
             id="path114"
             style="fill:#000000;fill-opacity:1;fill-rule:evenodd;stroke:none"
             d="m 0,0 c 0,0 -22.523,5.818 -51.907,-9.463 -29.914,-15.558 -41.066,-41.535 -41.066,-41.535 0,0 -16.713,119.315 92.973,50.998" /></g><g
           transform="translate(799.6787,1049.5674)"
           id="g116"><path
             id="path118"
             style="fill:#000000;fill-opacity:1;fill-rule:evenodd;stroke:none"
             d="m 0,0 c 0,0 -18.326,-191.82 -111.719,-49.432 0,0 62.982,-12.661 111.719,49.432" /></g></g></g><g
       id="g120"><g
         clip-path="url(#clipPath126)"
         id="g122"><g
           transform="translate(445.7559,716.0176)"
           id="g128"><path
             id="path130"
             style="fill:#ffffff;fill-opacity:1;fill-rule:nonzero;stroke:none"
             d="m 0,0 -197.877,-224.426 -41.405,36.507 63.934,209.204 -131.741,-149.417 -28.804,25.396 179.36,203.423 c -25.974,7.436 -50.76,0.493 -71.659,-23.21 -22.486,-25.502 -20.047,-37.252 -21.738,-46.428 -26.103,23.015 -29.816,46.021 -4.42,74.824 28.835,32.704 84.46,44.986 135.766,-0.25 4.8,-4.232 12.637,-11.676 18.199,-23.512 l -70.3,-220.656 143.382,162.618 z" /></g><g
           transform="translate(470.7598,547.8135)"
           id="g132"><path
             id="path134"
             style="fill:#ffffff;fill-opacity:1;fill-rule:nonzero;stroke:none"
             d="m 0,0 c 1.142,4.415 2.184,16.72 -9.277,23.27 -22.574,12.9 -55.271,-24.161 -72.538,-54.374 -28.183,-49.316 -11.562,-59.736 -2.88,-64.698 10.071,-5.756 28.528,-2.481 40.039,17.661 z M 69.063,4.76 1.583,-113.319 c -11.115,-19.449 -9.18,-26.543 4.364,-34.284 13.545,-7.74 30.811,-0.1 42.123,16.47 l 14.587,-8.335 c -39.991,-52.242 -77.003,-41.226 -95.757,-30.509 -24.31,13.893 -29.519,32.995 -23.068,55.569 -16.423,-11.808 -38.402,-20.44 -63.06,-6.348 -29.172,16.672 -49.611,55.073 -15.078,115.502 24.214,42.369 73.433,86.573 121.706,58.986 C -1.139,47.183 12.951,36.366 9.527,16.67 l 9.526,16.67 z" /></g><g
           transform="translate(629.1914,488.5508)"
           id="g136"><path
             id="path138"
             style="fill:#ffffff;fill-opacity:1;fill-rule:nonzero;stroke:none"
             d="M 0,0 C -5.999,2.231 -16.583,3.607 -22.005,0.503 L -58.82,-98.473 c -5.996,-16.121 -0.355,-25.048 10.518,-29.092 26.243,-9.761 45.446,22.359 56.044,50.852 C 22.664,-36.598 19.495,-7.252 0,0 M -38.898,120.31 17.877,107.727 -13.499,23.372 c 16.983,4.353 24.804,3.578 33.426,0.37 35.617,-13.247 49.022,-54.083 27.686,-111.444 -16.455,-44.239 -53.206,-97.147 -120.314,-72.185 -41.99,15.618 -53.729,46.018 -40.62,81.259 z" /></g><g
           transform="translate(792.5356,552.5156)"
           id="g140"><path
             id="path142"
             style="fill:#ffffff;fill-opacity:1;fill-rule:nonzero;stroke:none"
             d="m 0,0 -50.592,-209.99 c -5.246,-21.777 -1.409,-28.05 13.757,-31.703 15.166,-3.655 29.614,8.5 35.854,27.568 l 16.333,-3.935 c -23.827,-61.325 -62.442,-61.073 -83.441,-56.014 -40.054,9.65 -48.244,37.133 -39.531,73.298 l 49.749,206.49 z" /></g><g
           transform="translate(907.9829,416.0293)"
           id="g144"><path
             id="path146"
             style="fill:#ffffff;fill-opacity:1;fill-rule:nonzero;stroke:none"
             d="m 0,0 c -0.75,4.499 -4.793,16.167 -17.926,17.499 -25.867,2.624 -40.702,-44.52 -44.215,-79.143 -5.733,-56.511 13.687,-59.285 23.636,-60.294 11.541,-1.171 27.079,9.314 29.421,32.396 z M 61.183,32.391 47.455,-102.917 c -2.261,-22.286 2.388,-27.984 17.909,-29.56 15.52,-1.574 28.198,12.418 31.807,32.155 l 16.715,-1.696 c -15.336,-63.98 -53.633,-68.94 -75.123,-66.759 -27.857,2.826 -40.373,18.168 -43.643,41.417 -10.215,-17.458 -26.796,-34.271 -55.052,-31.405 -33.429,3.392 -67.7,30.189 -60.675,99.434 4.926,48.552 31.959,108.933 87.276,103.32 13.133,-1.332 30.401,-5.496 35.269,-24.886 l 1.938,19.102 z" /></g><g
           transform="translate(1054.8613,452.4531)"
           id="g148"><path
             id="path150"
             style="fill:#ffffff;fill-opacity:1;fill-rule:nonzero;stroke:none"
             d="M 0,0 1.299,-24.766 C 12.149,-10.178 26.258,3.38 43.035,4.26 63.008,5.308 78.372,-12.712 79.252,-29.489 79.859,-41.072 73.697,-53.412 57.32,-54.271 33.354,-55.528 40.821,-29.902 25.643,-30.698 17.654,-31.117 10.42,-38.306 2.514,-47.934 l 7.961,-151.788 -57.52,-3.017 -10.475,199.722 z" /></g><g
           transform="translate(1217.626,454.0605)"
           id="g152"><path
             id="path154"
             style="fill:#ffffff;fill-opacity:1;fill-rule:nonzero;stroke:none"
             d="M 0,0 C -17.704,-3.247 -23.116,-42.468 -17.288,-85.319 8.71,-78.517 24.911,-51.551 19.569,-22.437 16.249,-4.339 7.476,1.372 0,0 m 87.768,-94.921 13.376,2.454 c -7.916,-38.866 -26.384,-80.074 -79.891,-89.89 -45.244,-8.3 -82.27,11.749 -94.034,75.878 -8.372,45.638 -2.649,114.196 63.054,126.249 49.966,9.166 58.003,-27.994 59.519,-36.256 8.588,-46.819 -25.027,-78.606 -63.616,-87.718 7.21,-34.871 19.178,-46.909 47.506,-41.713 31.868,5.847 43.249,25.828 54.086,50.996" /></g><g
           transform="translate(1422.6709,464.2793)"
           id="g156"><path
             id="path158"
             style="fill:#ffffff;fill-opacity:1;fill-rule:nonzero;stroke:none"
             d="m 0,0 c 19.097,-58.146 23.566,-134.568 -36.099,-154.164 -36.103,-11.857 -65.879,5.729 -78.485,44.113 l -42.438,129.212 54.725,17.974 42.439,-129.212 c 5.99,-18.241 13.171,-24.725 24.953,-20.856 29.262,9.612 25.334,65.161 11.229,108.104 -3.994,12.161 -8.754,22.808 -13.774,31.684 0.113,-2.91 -7.113,-6.545 -10.153,-7.544 -10.641,-3.495 -22.861,8.07 -26.105,17.951 -2.996,9.121 1.218,18.084 13.76,22.202 C -34.487,67.827 -14.604,44.464 0,0" /></g><g
           transform="translate(1601.7861,327.8838)"
           id="g160"><path
             id="path162"
             style="fill:#ffffff;fill-opacity:1;fill-rule:nonzero;stroke:none"
             d="M 0,0 C 8.563,4.341 8.845,17.938 -1.827,38.987 L -7.073,49.334 C -19.69,34.416 -28.374,19.698 -22.586,8.282 -17.884,-0.994 -6.422,-3.256 0,0 M -55.905,273.028 28.022,107.489 c 16,17.978 20.734,35.177 8.384,68.382 l 14.985,7.597 C 70.985,134.204 53.774,108.885 36.161,91.435 L 49.004,66.104 C 74.688,15.443 52.282,-8.474 30.163,-19.688 2.692,-33.615 -27.205,-29.489 -39.866,-4.516 c -13.205,26.044 4.181,51.901 23.75,71.688 l -9.949,19.622 C -29.151,62.806 -43.939,52.169 -56.069,46.02 c -33.893,-17.184 -58.84,-2.476 -75.843,31.06 l -63.488,125.225 51.374,26.047 61.498,-121.301 c 9.045,-17.838 17.832,-21.904 27.108,-17.2 12.844,6.51 13.819,24.047 6.202,42.609 l -58.061,114.521 z" /></g><g
           transform="translate(1643.3066,645.7646)"
           id="g164"><path
             id="path166"
             style="fill:#ffffff;fill-opacity:1;fill-rule:nonzero;stroke:none"
             d="m 0,0 c -14.737,-10.335 -3.302,-48.239 19.863,-84.758 20.795,17.026 24.276,48.29 7.28,72.525 C 16.579,2.832 6.223,4.363 0,0 m 119.354,-49.677 11.136,7.809 c 9.011,-38.627 9.409,-83.783 -35.131,-115.017 -37.662,-26.411 -79.674,-23.628 -117.109,29.754 -26.641,37.99 -50.027,102.691 4.666,141.043 41.592,29.167 64.393,-1.257 69.215,-8.134 27.33,-38.972 10.031,-81.882 -21.243,-106.256 21.094,-28.688 36.993,-34.638 60.573,-18.103 26.527,18.602 28.539,41.51 27.893,68.904" /></g><g
           transform="translate(1758.0684,721.2461)"
           id="g168"><path
             id="path170"
             style="fill:#ffffff;fill-opacity:1;fill-rule:nonzero;stroke:none"
             d="m 0,0 c -10.489,-9.867 -4.223,-27.037 8.314,-42.701 l 87.975,-93.524 -41.955,-39.464 -137.031,145.675 41.955,39.465 14.251,-15.15 c -3.831,22.756 6.212,36.596 15.245,45.093 22.725,21.377 53.704,25.805 90.703,-13.527 12.059,-12.819 28.981,-33.144 39.396,-44.217 15.347,-16.314 26.5,-21.75 38.737,-10.238 4.953,4.658 7.318,7.982 7.679,10.518 19.732,-20.978 19.196,-38.506 2.588,-54.127 C 139.014,-99.33 106.67,-83.626 79.812,-55.074 69.945,-44.585 54.084,-26.556 45.314,-17.232 23.937,5.493 9.905,9.318 0,0" /></g></g></g></g></svg>